<svg aria-hidden="true" style="width:0;height:0;position:absolute;overflow:hidden" xmlns="http://www.w3.org/2000/svg"><defs><symbol id="icon-film" viewBox="0 0 32 32"><path fill="none" stroke="#fff" style="stroke:var(--color1,#fff)" stroke-linejoin="round" stroke-linecap="round" stroke-width="2.667" d="M26.427 2.667H5.574a2.907 2.907 0 0 0-2.907 2.907v20.853a2.907 2.907 0 0 0 2.907 2.907h20.853a2.907 2.907 0 0 0 2.907-2.907V5.574a2.907 2.907 0 0 0-2.907-2.907zm-17.094 0v26.667M22.667 2.667v26.667M2.667 16h26.667M2.667 9.333h6.667M2.667 22.667h6.667m13.333 0h6.667M22.667 9.333h6.667"/></symbol><symbol id="icon-search" viewBox="0 0 32 32"><path fill="none" stroke="#fff" style="stroke:var(--color1,#fff)" stroke-linejoin="round" stroke-linecap="round" stroke-width="2.667" d="M14.667 25.333c5.891 0 10.667-4.776 10.667-10.667S20.558 3.999 14.667 3.999 4 8.775 4 14.666s4.776 10.667 10.667 10.667zM28 28.001l-5.8-5.8"/></symbol><symbol id="icon-arrow-right" viewBox="0 0 32 32"><path stroke-linejoin="round" stroke-linecap="round" stroke-width="2.667" d="M6.667 16h18.667M16 25.333 25.333 16 16 6.667"/></symbol><symbol id="icon-arrow-left" viewBox="0 0 32 32"><path stroke-linejoin="round" stroke-linecap="round" stroke-width="2.667" d="M25.333 16H6.666M16 25.333 6.667 16 16 6.667"/></symbol><symbol id="icon-favorite" viewBox="0 0 32 32"><path fill="#ff6b08" style="fill:var(--color2,#ff6b08)" d="m16 30.144-2.24-2.218C5.44 20.639 0 15.728 0 9.708 0 4.797 3.84.995 8.8.995c2.72 0 5.44 1.267 7.2 3.327C17.76 2.263 20.48.995 23.2.995c4.96 0 8.8 3.802 8.8 8.713 0 6.02-5.44 10.931-13.76 18.218L16 30.144z"/></symbol><symbol id="icon-close" viewBox="0 0 30 30"><path d="M28.625 2.069c-.087.031-2.962 2.863-6.387 6.294L16 14.594 9.769 8.363c-6.781-6.775-6.35-6.381-6.938-6.269-.306.056-.681.431-.737.737-.113.587-.506.156 6.269 6.931l6.231 6.237-6.262 6.262c-6.794 6.806-6.412 6.381-6.306 6.963.056.294.456.694.75.75.581.106.156.488 6.956-6.306l6.269-6.262 6.262 6.262c6.813 6.806 6.381 6.413 6.969 6.3.306-.056.681-.431.738-.738.113-.587.506-.156-6.3-6.962l-6.262-6.269 6.262-6.262c6.787-6.794 6.412-6.381 6.306-6.956-.106-.569-.794-.931-1.35-.712z"/></symbol><symbol id="icon-key" viewBox="0 0 32 32"><path d="M19.5.1c-3.669.519-6.8 2.819-8.356 6.138a10.892 10.892 0 0 0-.519 7.825l.188.594L5.6 19.876C2.731 22.745.356 25.157.319 25.232c-.05.094-.069 1.075-.069 3.156 0 2.881.006 3.025.125 3.219.237.394.237.394 2.969.394 1.981 0 2.512-.019 2.675-.087.256-.113 1.894-1.762 1.981-1.994.031-.1.063-.637.063-1.206v-1.025h1.063c1.481 0 1.569-.056 1.625-1l.031-.531.531-.031c.925-.056 1-.163 1-1.5v-.938h.863c.469 0 .956-.025 1.075-.063.162-.044.563-.406 1.531-1.375l1.313-1.306.594.181c2.294.725 4.9.644 7.131-.219 2.925-1.131 5.288-3.569 6.306-6.5.381-1.094.55-1.981.606-3.156.169-3.731-1.663-7.325-4.806-9.431C25.67.982 24.32.439 22.745.151c-.769-.138-2.444-.169-3.244-.05zm3 1.612a9.674 9.674 0 0 1 3.6 1.45c.956.638 2.038 1.763 2.694 2.806.337.531.819 1.594.988 2.188.275.963.369 1.613.369 2.656 0 1.575-.262 2.688-.962 4.094-.531 1.063-1.031 1.738-1.887 2.563a8.993 8.993 0 0 1-3.506 2.119c-1.031.337-1.688.438-2.856.438-1.387 0-2.1-.144-3.65-.706-.581-.219-.613-.194-2.194 1.375l-1.375 1.363-1.188.019c-1.319.019-1.419.05-1.656.444-.106.175-.125.319-.125 1.119v.925h-.456c-.813 0-1.106.294-1.106 1.106v.45l-1.088.019c-.994.019-1.106.031-1.269.15-.313.231-.331.331-.331 1.712v1.281l-1.156 1.156H1.815v-1.094l4.9-4.906c3.844-3.85 4.906-4.95 4.944-5.1.05-.25-.094-.606-.294-.731-.15-.1-.281-.125-.55-.113-.119.006-1.206 1.056-4.531 4.381-2.406 2.406-4.4 4.375-4.425 4.375s-.044-.3-.044-.675v-.669l5.281-5.281c4.15-4.15 5.306-5.338 5.381-5.537.088-.238.088-.275-.037-.625-.594-1.631-.713-2.25-.713-3.65 0-.719.031-1.2.106-1.594.356-1.825 1.169-3.431 2.387-4.713.838-.869 1.613-1.45 2.65-1.975 1.688-.844 3.756-1.144 5.631-.819z"/><path d="M23.55 4.662c-.544.131-.975.375-1.4.8-1.281 1.281-1.119 3.356.35 4.437.606.45 1.381.644 2.137.537 1.594-.225 2.744-1.756 2.5-3.325-.144-.95-.762-1.8-1.606-2.212-.688-.338-1.288-.406-1.981-.237zm1.375 1.694c.538.306.788.956.606 1.556-.175.588-.688.963-1.313.963a1.32 1.32 0 0 1-1.344-1.35 1.346 1.346 0 0 1 2.05-1.169z"/></symbol><symbol id="icon-mail" viewBox="0 0 32 32"><path d="M1.206 5.4C.618 5.588.2 6.012.062 6.569c-.044.194-.063 3.05-.05 9.587l.019 9.313.188.337c.106.188.3.419.431.519.537.387-.506.363 15.35.363s14.813.025 15.35-.363c.131-.1.331-.331.431-.519l.188-.337V6.531l-.188-.338c-.1-.188-.3-.419-.431-.519-.538-.388.512-.362-15.375-.356-11.75 0-14.556.019-14.769.081zm28.419 1.25c-.05.044-2.969 2.237-6.481 4.869-4.281 3.213-6.463 4.806-6.625 4.85a2.093 2.093 0 0 1-1.037 0c-.162-.044-2.344-1.637-6.625-4.85A1570.056 1570.056 0 0 1 2.376 6.65c-.075-.075 1.962-.088 13.625-.088s13.7.013 13.625.088zM8 12.406c3.625 2.719 6.713 4.994 6.863 5.05.15.063.463.144.7.181.525.087 1.169 0 1.656-.225.169-.081 3.281-2.375 6.906-5.094l6.594-4.95.019 4.281c.006 2.356.006 6.212 0 8.563l-.019 4.281-3.469-4.281c-1.906-2.356-3.512-4.313-3.569-4.344-.169-.088-.481-.069-.65.044a.672.672 0 0 0-.244.631c.025.087 1.625 2.119 3.563 4.512l3.525 4.35-6.938.019c-3.819.006-10.056.006-13.875 0l-6.938-.019 3.525-4.35c1.938-2.394 3.537-4.425 3.563-4.512a.672.672 0 0 0-.244-.631.807.807 0 0 0-.625-.063c-.05.025-1.65 1.956-3.544 4.3a6529.33 6529.33 0 0 0-3.494 4.313c-.031.038-.056-3.65-.056-8.519 0-6.844.019-8.569.081-8.531.038.031 3.044 2.275 6.669 4.994z"/></symbol><symbol id="icon-restriction" viewBox="0 0 32 32"><path d="M29.031 1.719c-.106.056-1.45 1.356-2.994 2.9l-2.8 2.8-.825-.388c-4.6-2.2-8.906-2.081-13.594.381-1.912 1.006-3.731 2.331-5.706 4.169-.856.8-2.237 2.275-2.594 2.781-.594.831-.675 1.994-.2 2.938.206.419 1.087 1.431 2.244 2.575a29.132 29.132 0 0 0 3.788 3.188l.725.519-2.688 2.694c-2.35 2.356-2.694 2.725-2.731 2.931-.137.738.4 1.275 1.144 1.137.2-.038.587-.394 3.106-2.906l2.875-2.863.438.219c2.231 1.144 4.519 1.725 6.781 1.725 2.731-.006 5.35-.806 8.219-2.525 2.137-1.275 4.406-3.156 6.25-5.181 1.35-1.475 1.494-1.75 1.494-2.813 0-1.075-.156-1.363-1.563-2.887-1.387-1.5-3.094-3.006-4.669-4.125l-.806-.569 2.688-2.694c2.9-2.9 2.837-2.831 2.738-3.375-.106-.575-.781-.894-1.319-.631zM17.875 7.506c.431.075 1.106.231 1.5.35.725.219 2.15.775 2.337.912.087.063-.075.25-1.169 1.344l-1.269 1.269-.494-.287c-.863-.494-1.744-.719-2.787-.719-1.575 0-2.831.525-3.963 1.656s-1.656 2.387-1.656 3.963c0 1.044.225 1.925.719 2.787l.287.494-2.938 2.938-.725-.488c-1.388-.938-2.888-2.212-4.281-3.637-1.456-1.494-1.637-1.762-1.538-2.306.05-.269.431-.738 1.506-1.838 4.325-4.444 8.9-6.763 13-6.594.381.019 1.038.088 1.469.156zm6.475 2.813c1.425.975 2.938 2.269 4.337 3.719.988 1.025 1.363 1.481 1.413 1.744.1.544-.081.813-1.538 2.306-1.506 1.544-2.863 2.681-4.469 3.756-4.087 2.731-7.844 3.45-11.662 2.244-.669-.212-2.094-.788-2.194-.887-.025-.025.525-.619 1.219-1.313l1.269-1.269.494.288c1.662.944 3.8.969 5.463.056a5.805 5.805 0 0 0 2.281-2.281c.913-1.663.887-3.8-.056-5.463l-.288-.494 1.456-1.456c.8-.8 1.469-1.456 1.494-1.456.019 0 .369.231.781.506zm-7.45 2.025c.406.106.975.338.975.4 0 .019-1.156 1.194-2.563 2.6-2.044 2.044-2.575 2.544-2.625 2.469-.106-.156-.313-.75-.387-1.081-.1-.475-.025-1.494.144-1.975.394-1.137 1.444-2.1 2.619-2.406.456-.119 1.381-.125 1.838-.006zm2.531 2.087c.325.762.413 1.731.225 2.475-.306 1.2-1.262 2.25-2.413 2.65-.481.169-1.5.244-1.975.144-.331-.075-.925-.281-1.081-.387-.075-.05.425-.581 2.469-2.625 1.406-1.406 2.581-2.563 2.6-2.563.025 0 .1.137.175.306z"/></symbol><symbol id="icon-user" viewBox="0 0 32 32"><path d="M14.469.069A16.057 16.057 0 0 0 2.425 7.544C-.619 12.382-.8 18.65 1.956 23.657c1.975 3.594 5.206 6.269 9.125 7.563 1.662.544 3.006.75 4.95.75 1.869-.006 3.181-.2 4.813-.719 2.381-.756 4.456-2.012 6.275-3.781 1.431-1.394 2.35-2.65 3.219-4.406 2.531-5.106 2.15-11.131-1.012-15.9a14.658 14.658 0 0 0-1.969-2.406C24.863 2.233 21.776.677 18.22.152c-.762-.113-2.981-.163-3.75-.081zm3.325 1.65c1.656.219 3.106.656 4.55 1.375a13.78 13.78 0 0 1 4.006 2.919c2.619 2.712 4.025 6.194 4.025 9.988 0 2.675-.719 5.269-2.069 7.469l-.319.525-.481-.637c-.919-1.238-2.356-2.587-3.663-3.431-.837-.55-2.331-1.269-3.25-1.569-.444-.144-.819-.281-.831-.313-.006-.025.163-.194.375-.375 2.288-1.938 2.913-5.262 1.488-7.9-.306-.575-.581-.931-1.113-1.481-1.581-1.612-3.988-2.263-6.2-1.656-1.744.475-3.256 1.738-4.063 3.4-.431.881-.569 1.444-.606 2.5-.037 1.006.056 1.65.363 2.494.35.975 1.037 1.95 1.869 2.656.225.188.4.356.394.369-.006.019-.387.156-.844.306-1.563.519-3.213 1.425-4.525 2.488-.756.619-1.825 1.731-2.406 2.512l-.481.637-.319-.519c-1.025-1.669-1.731-3.712-1.981-5.719-.113-.925-.113-2.594 0-3.506.688-5.513 4.481-10.156 9.725-11.894a14.22 14.22 0 0 1 2.719-.637c.887-.113 2.744-.113 3.638 0zM16.925 8.1c1.837.375 3.256 1.731 3.738 3.556.163.637.156 1.719-.025 2.363-.394 1.387-1.281 2.462-2.544 3.075-.75.369-1.275.488-2.125.481-.838 0-1.45-.15-2.15-.512-2.55-1.325-3.388-4.5-1.819-6.894 1.063-1.625 3.044-2.456 4.925-2.069zm.169 11.15c3.85.35 7.306 2.375 9.469 5.531.275.406.356.575.313.65-.113.212-1.619 1.619-2.194 2.05a14.62 14.62 0 0 1-7.087 2.831c-.738.081-2.438.081-3.206-.006-2.506-.275-4.988-1.269-7.069-2.825-.575-.431-2.081-1.837-2.194-2.044-.044-.081.031-.238.313-.656 2.594-3.8 7.113-5.944 11.656-5.531z"/></symbol><symbol id="icon-view" viewBox="0 0 32 32"><path d="M14.594 5.725c-1.856.263-3.325.694-4.925 1.45-2.619 1.237-5.631 3.544-8.012 6.138C.182 14.919.032 15.176.032 16.032c0 .406.031.563.163.844.263.563 1.931 2.406 3.281 3.637 3.456 3.137 6.781 4.963 10.269 5.625.625.125.938.144 2.256.144s1.631-.019 2.256-.144c4.444-.844 8.825-3.688 12.9-8.356.65-.75.813-1.094.813-1.75 0-.856-.225-1.231-1.663-2.756-3.988-4.225-7.956-6.662-12.087-7.438-.538-.1-3.144-.181-3.625-.112zm2.581 1.969c2.95.325 6.075 1.869 9.256 4.581C27.675 13.331 30 15.75 30 15.988c0 .306-2.356 2.725-3.944 4.056-3.538 2.944-7.231 4.463-10.494 4.313-3.4-.163-6.856-1.837-10.494-5.081-1.281-1.144-3.069-3.05-3.069-3.281 0-.213 1.762-2.1 3-3.213 2.044-1.844 4.013-3.162 5.994-4.031 1.194-.519 2.644-.931 3.756-1.056a12.595 12.595 0 0 1 2.425 0z"/><path d="M14.563 9.256a6.883 6.883 0 0 0-5.438 6.713c.006 1.462.363 2.663 1.156 3.875.306.475 1.387 1.563 1.856 1.863 2.4 1.569 5.319 1.569 7.706.012.481-.313 1.563-1.394 1.875-1.875 1.206-1.85 1.494-4.088.775-6.131-.75-2.156-2.606-3.844-4.831-4.412-.769-.194-2.306-.219-3.1-.044zM17.3 11.25c2.581.725 4.094 3.313 3.481 5.938a6.403 6.403 0 0 1-.375.969 4.714 4.714 0 0 1-2.25 2.25c-.781.375-1.281.494-2.156.494-.869 0-1.375-.119-2.156-.494-1.95-.938-3.063-3.094-2.694-5.213.375-2.138 2.013-3.737 4.194-4.094.4-.063 1.506.019 1.956.15z"/></symbol><symbol id="icon-three-dots" viewBox="0 0 32 32"><path d="M3.961 12.04h-.003A3.958 3.958 0 0 0 0 15.998v.003a3.958 3.958 0 0 0 3.958 3.958h.003a3.96 3.96 0 0 0 0-7.92zm12.244 0h-.001a3.96 3.96 0 0 0-3.96 3.958c0 2.188 1.775 3.96 3.961 3.96s3.963-1.769 3.963-3.96a3.963 3.963 0 0 0-3.963-3.958zm11.837 0-.065-.001a3.96 3.96 0 0 0 0 7.92h.064-.003a3.961 3.961 0 0 0 .009-7.92h-.003z"/></symbol></defs></svg>