<svg aria-hidden="true" style="position:absolute;width:0;height:0;overflow:hidden" xmlns="http://www.w3.org/2000/svg">
  <defs>
    <symbol id="icon-film" viewBox="0 0 32 32">
      <path fill="none" stroke="#fff" style="stroke:var(--color1, #fff)" stroke-linejoin="round" stroke-linecap="round" stroke-width="2.667" d="M26.427 2.667H5.574a2.907 2.907 0 0 0-2.907 2.907v20.853a2.907 2.907 0 0 0 2.907 2.907h20.853a2.907 2.907 0 0 0 2.907-2.907V5.574a2.907 2.907 0 0 0-2.907-2.907zM9.333 2.667v26.667M22.667 2.667v26.667M2.667 16h26.667M2.667 9.333h6.667M2.667 22.667h6.667M22.667 22.667h6.667M22.667 9.333h6.667"/>
    </symbol>
    <symbol id="icon-search" viewBox="0 0 32 32">
      <path fill="none" stroke="#fff" style="stroke:var(--color1, #fff)" stroke-linejoin="round" stroke-linecap="round" stroke-width="2.667" d="M14.667 25.333c5.891 0 10.667-4.776 10.667-10.667S20.558 3.999 14.667 3.999 4 8.775 4 14.666s4.776 10.667 10.667 10.667zM28 28.001l-5.8-5.8"/>
    </symbol>
    <symbol id="icon-arrow-right" viewBox="0 0 32 32">
      <path stroke-linejoin="round" stroke-linecap="round" stroke-width="2.667" d="M6.667 16h18.667M16 25.333 25.333 16 16 6.667"/>
    </symbol>
    <symbol id="icon-arrow-left" viewBox="0 0 32 32">
      <path stroke-linejoin="round" stroke-linecap="round" stroke-width="2.667" d="M25.333 16H6.666M16 25.333 6.667 16 16 6.667"/>
    </symbol>
    <symbol id="icon-favorite" viewBox="0 0 32 32">
      <path fill="#ff6b08" style="fill:var(--color2, #ff6b08)" d="m16 30.144-2.24-2.218C5.44 20.639 0 15.728 0 9.708 0 4.797 3.84.995 8.8.995c2.72 0 5.44 1.267 7.2 3.327C17.76 2.263 20.48.995 23.2.995c4.96 0 8.8 3.802 8.8 8.713 0 6.02-5.44 10.931-13.76 18.218L16 30.144z"/>
    </symbol>

      <!-- <symbol id="icon-close" viewBox="0 0 30 30" >
     <path d="M8 8L22 22"  stroke-width="2"/>
     <path d="M8 22L22 8"  stroke-width="2"/> -->

    <symbol id="icon-close" viewBox="0 0 30 30">
    <path d="M28.625 2.069c-0.087 0.031-2.962 2.863-6.387 6.294l-6.238 6.231-6.231-6.231c-6.781-6.775-6.35-6.381-6.938-6.269-0.306 0.056-0.681 0.431-0.737 0.737-0.113 0.587-0.506 0.156 6.269 6.931l6.231 6.237-6.262 6.262c-6.794 6.806-6.412 6.381-6.306 6.963 0.056 0.294 0.456 0.694 0.75 0.75 0.581 0.106 0.156 0.488 6.956-6.306l6.269-6.262 6.262 6.262c6.813 6.806 6.381 6.413 6.969 6.3 0.306-0.056 0.681-0.431 0.738-0.738 0.113-0.587 0.506-0.156-6.3-6.962l-6.262-6.269 6.262-6.262c6.787-6.794 6.412-6.381 6.306-6.956-0.106-0.569-0.794-0.931-1.35-0.712z"></path>
    </symbol>
    <symbol id="icon-key" viewBox="0 0 32 32">
    <path d="M19.5 0.1c-3.669 0.519-6.8 2.819-8.356 6.138-1.137 2.425-1.325 5.269-0.519 7.825l0.188 0.594-5.213 5.219c-2.869 2.869-5.244 5.281-5.281 5.356-0.050 0.094-0.069 1.075-0.069 3.156 0 2.881 0.006 3.025 0.125 3.219 0.237 0.394 0.237 0.394 2.969 0.394 1.981 0 2.512-0.019 2.675-0.087 0.256-0.113 1.894-1.762 1.981-1.994 0.031-0.1 0.063-0.637 0.063-1.206v-1.025h1.063c1.481 0 1.569-0.056 1.625-1l0.031-0.531 0.531-0.031c0.925-0.056 1-0.163 1-1.5v-0.938h0.863c0.469 0 0.956-0.025 1.075-0.063 0.162-0.044 0.563-0.406 1.531-1.375l1.313-1.306 0.594 0.181c2.294 0.725 4.9 0.644 7.131-0.219 2.925-1.131 5.288-3.569 6.306-6.5 0.381-1.094 0.55-1.981 0.606-3.156 0.169-3.731-1.663-7.325-4.806-9.431-1.256-0.838-2.606-1.381-4.181-1.669-0.769-0.138-2.444-0.169-3.244-0.050zM22.5 1.712c1.256 0.225 2.506 0.725 3.6 1.45 0.956 0.638 2.038 1.763 2.694 2.806 0.337 0.531 0.819 1.594 0.988 2.188 0.275 0.963 0.369 1.613 0.369 2.656 0 1.575-0.262 2.688-0.962 4.094-0.531 1.063-1.031 1.738-1.887 2.563-1.025 0.988-2.194 1.694-3.506 2.119-1.031 0.337-1.688 0.438-2.856 0.438-1.387 0-2.1-0.144-3.65-0.706-0.581-0.219-0.613-0.194-2.194 1.375l-1.375 1.363-1.188 0.019c-1.319 0.019-1.419 0.050-1.656 0.444-0.106 0.175-0.125 0.319-0.125 1.119v0.925h-0.456c-0.813 0-1.106 0.294-1.106 1.106v0.45l-1.088 0.019c-0.994 0.019-1.106 0.031-1.269 0.15-0.313 0.231-0.331 0.331-0.331 1.712v1.281l-1.156 1.156h-3.531v-1.094l4.9-4.906c3.844-3.85 4.906-4.95 4.944-5.1 0.050-0.25-0.094-0.606-0.294-0.731-0.15-0.1-0.281-0.125-0.55-0.113-0.119 0.006-1.206 1.056-4.531 4.381-2.406 2.406-4.4 4.375-4.425 4.375s-0.044-0.3-0.044-0.675v-0.669l5.281-5.281c4.15-4.15 5.306-5.338 5.381-5.537 0.088-0.238 0.088-0.275-0.037-0.625-0.594-1.631-0.713-2.25-0.713-3.65 0-0.719 0.031-1.2 0.106-1.594 0.356-1.825 1.169-3.431 2.387-4.713 0.838-0.869 1.613-1.45 2.65-1.975 1.688-0.844 3.756-1.144 5.631-0.819z"></path>
    <path d="M23.55 4.662c-0.544 0.131-0.975 0.375-1.4 0.8-1.281 1.281-1.119 3.356 0.35 4.437 0.606 0.45 1.381 0.644 2.137 0.537 1.594-0.225 2.744-1.756 2.5-3.325-0.144-0.95-0.762-1.8-1.606-2.212-0.688-0.338-1.288-0.406-1.981-0.237zM24.925 6.356c0.538 0.306 0.788 0.956 0.606 1.556-0.175 0.588-0.688 0.963-1.313 0.963-0.762 0-1.344-0.581-1.344-1.35 0-1.069 1.119-1.713 2.050-1.169z"></path>
    </symbol>
    <symbol id="icon-mail" viewBox="0 0 32 32">
    <path d="M1.206 5.4c-0.588 0.188-1.006 0.612-1.144 1.169-0.044 0.194-0.063 3.050-0.050 9.587l0.019 9.313 0.188 0.337c0.106 0.188 0.3 0.419 0.431 0.519 0.537 0.387-0.506 0.363 15.35 0.363s14.813 0.025 15.35-0.363c0.131-0.1 0.331-0.331 0.431-0.519l0.188-0.337v-18.938l-0.188-0.338c-0.1-0.188-0.3-0.419-0.431-0.519-0.538-0.388 0.512-0.362-15.375-0.356-11.75 0-14.556 0.019-14.769 0.081zM29.625 6.65c-0.050 0.044-2.969 2.237-6.481 4.869-4.281 3.213-6.463 4.806-6.625 4.85-0.306 0.087-0.731 0.087-1.037 0-0.162-0.044-2.344-1.637-6.625-4.85-3.513-2.631-6.431-4.825-6.481-4.869-0.075-0.075 1.962-0.088 13.625-0.088s13.7 0.013 13.625 0.088zM8 12.406c3.625 2.719 6.713 4.994 6.863 5.050 0.15 0.063 0.463 0.144 0.7 0.181 0.525 0.087 1.169 0 1.656-0.225 0.169-0.081 3.281-2.375 6.906-5.094l6.594-4.95 0.019 4.281c0.006 2.356 0.006 6.212 0 8.563l-0.019 4.281-3.469-4.281c-1.906-2.356-3.512-4.313-3.569-4.344-0.169-0.088-0.481-0.069-0.65 0.044-0.175 0.119-0.294 0.419-0.244 0.631 0.025 0.087 1.625 2.119 3.563 4.512l3.525 4.35-6.938 0.019c-3.819 0.006-10.056 0.006-13.875 0l-6.938-0.019 3.525-4.35c1.938-2.394 3.537-4.425 3.563-4.512 0.050-0.212-0.069-0.512-0.244-0.631-0.156-0.1-0.444-0.131-0.625-0.063-0.050 0.025-1.65 1.956-3.544 4.3-1.894 2.337-3.469 4.281-3.494 4.313-0.031 0.038-0.056-3.65-0.056-8.519 0-6.844 0.019-8.569 0.081-8.531 0.038 0.031 3.044 2.275 6.669 4.994z"></path>
    </symbol>
    <symbol id="icon-restriction" viewBox="0 0 32 32">
    <path d="M29.031 1.719c-0.106 0.056-1.45 1.356-2.994 2.9l-2.8 2.8-0.825-0.388c-4.6-2.2-8.906-2.081-13.594 0.381-1.912 1.006-3.731 2.331-5.706 4.169-0.856 0.8-2.237 2.275-2.594 2.781-0.594 0.831-0.675 1.994-0.2 2.938 0.206 0.419 1.087 1.431 2.244 2.575 1.238 1.225 2.425 2.225 3.788 3.188l0.725 0.519-2.688 2.694c-2.35 2.356-2.694 2.725-2.731 2.931-0.137 0.738 0.4 1.275 1.144 1.137 0.2-0.038 0.587-0.394 3.106-2.906l2.875-2.863 0.438 0.219c2.231 1.144 4.519 1.725 6.781 1.725 2.731-0.006 5.35-0.806 8.219-2.525 2.137-1.275 4.406-3.156 6.25-5.181 1.35-1.475 1.494-1.75 1.494-2.813 0-1.075-0.156-1.363-1.563-2.887-1.387-1.5-3.094-3.006-4.669-4.125l-0.806-0.569 2.688-2.694c2.9-2.9 2.837-2.831 2.738-3.375-0.106-0.575-0.781-0.894-1.319-0.631zM17.875 7.506c0.431 0.075 1.106 0.231 1.5 0.35 0.725 0.219 2.15 0.775 2.337 0.912 0.087 0.063-0.075 0.25-1.169 1.344l-1.269 1.269-0.494-0.287c-0.863-0.494-1.744-0.719-2.787-0.719-1.575 0-2.831 0.525-3.963 1.656s-1.656 2.387-1.656 3.963c0 1.044 0.225 1.925 0.719 2.787l0.287 0.494-2.938 2.938-0.725-0.488c-1.388-0.938-2.888-2.212-4.281-3.637-1.456-1.494-1.637-1.762-1.538-2.306 0.050-0.269 0.431-0.738 1.506-1.838 4.325-4.444 8.9-6.763 13-6.594 0.381 0.019 1.038 0.088 1.469 0.156zM24.35 10.319c1.425 0.975 2.938 2.269 4.337 3.719 0.988 1.025 1.363 1.481 1.413 1.744 0.1 0.544-0.081 0.813-1.538 2.306-1.506 1.544-2.863 2.681-4.469 3.756-4.087 2.731-7.844 3.45-11.662 2.244-0.669-0.212-2.094-0.788-2.194-0.887-0.025-0.025 0.525-0.619 1.219-1.313l1.269-1.269 0.494 0.288c1.662 0.944 3.8 0.969 5.463 0.056 0.956-0.525 1.756-1.325 2.281-2.281 0.913-1.663 0.887-3.8-0.056-5.463l-0.288-0.494 1.456-1.456c0.8-0.8 1.469-1.456 1.494-1.456 0.019 0 0.369 0.231 0.781 0.506zM16.9 12.344c0.406 0.106 0.975 0.338 0.975 0.4 0 0.019-1.156 1.194-2.563 2.6-2.044 2.044-2.575 2.544-2.625 2.469-0.106-0.156-0.313-0.75-0.387-1.081-0.1-0.475-0.025-1.494 0.144-1.975 0.394-1.137 1.444-2.1 2.619-2.406 0.456-0.119 1.381-0.125 1.838-0.006zM19.431 14.431c0.325 0.762 0.413 1.731 0.225 2.475-0.306 1.2-1.262 2.25-2.413 2.65-0.481 0.169-1.5 0.244-1.975 0.144-0.331-0.075-0.925-0.281-1.081-0.387-0.075-0.050 0.425-0.581 2.469-2.625 1.406-1.406 2.581-2.563 2.6-2.563 0.025 0 0.1 0.137 0.175 0.306z"></path>
    </symbol>
    <symbol id="icon-user" viewBox="0 0 32 32">
    <path d="M14.469 0.069c-4.988 0.506-9.381 3.237-12.044 7.475-3.044 4.838-3.225 11.106-0.469 16.113 1.975 3.594 5.206 6.269 9.125 7.563 1.662 0.544 3.006 0.75 4.95 0.75 1.869-0.006 3.181-0.2 4.813-0.719 2.381-0.756 4.456-2.012 6.275-3.781 1.431-1.394 2.35-2.65 3.219-4.406 2.531-5.106 2.15-11.131-1.012-15.9-0.575-0.875-1.156-1.588-1.969-2.406-2.494-2.525-5.581-4.081-9.137-4.606-0.762-0.113-2.981-0.163-3.75-0.081zM17.794 1.719c1.656 0.219 3.106 0.656 4.55 1.375 1.581 0.781 2.781 1.656 4.006 2.919 2.619 2.712 4.025 6.194 4.025 9.988 0 2.675-0.719 5.269-2.069 7.469l-0.319 0.525-0.481-0.637c-0.919-1.238-2.356-2.587-3.663-3.431-0.837-0.55-2.331-1.269-3.25-1.569-0.444-0.144-0.819-0.281-0.831-0.313-0.006-0.025 0.163-0.194 0.375-0.375 2.288-1.938 2.913-5.262 1.488-7.9-0.306-0.575-0.581-0.931-1.113-1.481-1.581-1.612-3.988-2.263-6.2-1.656-1.744 0.475-3.256 1.738-4.063 3.4-0.431 0.881-0.569 1.444-0.606 2.5-0.037 1.006 0.056 1.65 0.363 2.494 0.35 0.975 1.037 1.95 1.869 2.656 0.225 0.188 0.4 0.356 0.394 0.369-0.006 0.019-0.387 0.156-0.844 0.306-1.563 0.519-3.213 1.425-4.525 2.488-0.756 0.619-1.825 1.731-2.406 2.512l-0.481 0.637-0.319-0.519c-1.025-1.669-1.731-3.712-1.981-5.719-0.113-0.925-0.113-2.594 0-3.506 0.688-5.513 4.481-10.156 9.725-11.894 0.95-0.319 1.794-0.512 2.719-0.637 0.887-0.113 2.744-0.113 3.638 0zM16.925 8.1c1.837 0.375 3.256 1.731 3.738 3.556 0.163 0.637 0.156 1.719-0.025 2.363-0.394 1.387-1.281 2.462-2.544 3.075-0.75 0.369-1.275 0.488-2.125 0.481-0.838 0-1.45-0.15-2.15-0.512-2.55-1.325-3.388-4.5-1.819-6.894 1.063-1.625 3.044-2.456 4.925-2.069zM17.094 19.25c3.85 0.35 7.306 2.375 9.469 5.531 0.275 0.406 0.356 0.575 0.313 0.65-0.113 0.212-1.619 1.619-2.194 2.050-2.075 1.556-4.531 2.538-7.087 2.831-0.738 0.081-2.438 0.081-3.206-0.006-2.506-0.275-4.988-1.269-7.069-2.825-0.575-0.431-2.081-1.837-2.194-2.044-0.044-0.081 0.031-0.238 0.313-0.656 2.594-3.8 7.113-5.944 11.656-5.531z"></path>
    </symbol>
    <symbol id="icon-view" viewBox="0 0 32 32">
    <path d="M14.594 5.725c-1.856 0.263-3.325 0.694-4.925 1.45-2.619 1.237-5.631 3.544-8.012 6.138-1.475 1.606-1.625 1.863-1.625 2.719 0 0.406 0.031 0.563 0.163 0.844 0.263 0.563 1.931 2.406 3.281 3.637 3.456 3.137 6.781 4.963 10.269 5.625 0.625 0.125 0.938 0.144 2.256 0.144s1.631-0.019 2.256-0.144c4.444-0.844 8.825-3.688 12.9-8.356 0.65-0.75 0.813-1.094 0.813-1.75 0-0.856-0.225-1.231-1.663-2.756-3.988-4.225-7.956-6.662-12.087-7.438-0.538-0.1-3.144-0.181-3.625-0.112zM17.175 7.694c2.95 0.325 6.075 1.869 9.256 4.581 1.244 1.056 3.569 3.475 3.569 3.713 0 0.306-2.356 2.725-3.944 4.056-3.538 2.944-7.231 4.463-10.494 4.313-3.4-0.163-6.856-1.837-10.494-5.081-1.281-1.144-3.069-3.050-3.069-3.281 0-0.213 1.762-2.1 3-3.213 2.044-1.844 4.013-3.162 5.994-4.031 1.194-0.519 2.644-0.931 3.756-1.056 0.688-0.075 1.731-0.081 2.425 0z"></path>
    <path d="M14.563 9.256c-3.169 0.681-5.438 3.487-5.438 6.713 0.006 1.462 0.363 2.663 1.156 3.875 0.306 0.475 1.387 1.563 1.856 1.863 2.4 1.569 5.319 1.569 7.706 0.012 0.481-0.313 1.563-1.394 1.875-1.875 1.206-1.85 1.494-4.088 0.775-6.131-0.75-2.156-2.606-3.844-4.831-4.412-0.769-0.194-2.306-0.219-3.1-0.044zM17.3 11.25c2.581 0.725 4.094 3.313 3.481 5.938-0.056 0.225-0.225 0.656-0.375 0.969-0.5 1.025-1.238 1.756-2.25 2.25-0.781 0.375-1.281 0.494-2.156 0.494-0.869 0-1.375-0.119-2.156-0.494-1.95-0.938-3.063-3.094-2.694-5.213 0.375-2.138 2.013-3.737 4.194-4.094 0.4-0.063 1.506 0.019 1.956 0.15z"></path>
    </symbol>
    <symbol id="icon-three-dots" viewBox="0 0 32 32">
<path d="M3.961 12.040c-0.001 0-0.002 0-0.003 0-2.186 0-3.958 1.772-3.958 3.958 0 0 0 0.001 0 0.001v-0c0 0.001 0 0.001 0 0.002 0 2.186 1.772 3.958 3.958 3.958 0.001 0 0.002 0 0.003 0h-0c2.187 0 3.96-1.773 3.96-3.96s-1.773-3.96-3.96-3.96v0zM16.205 12.040c-0 0-0.001 0-0.001 0-2.186 0-3.959 1.772-3.96 3.958v0c0 2.188 1.775 3.96 3.961 3.96s3.963-1.769 3.963-3.96c-0.003-2.187-1.776-3.958-3.963-3.958 0 0 0 0 0 0v0zM28.042 12.040c-0.019-0-0.042-0.001-0.065-0.001-2.187 0-3.96 1.773-3.96 3.96s1.773 3.96 3.96 3.96c0.021 0 0.042-0 0.064-0l-0.003 0c2.161-0.034 3.9-1.794 3.9-3.96 0-2.164-1.736-3.923-3.891-3.96l-0.003-0z"></path>
</symbol>
  </defs>
</svg>
