<svg aria-hidden="true" style="position: absolute; width: 0; height: 0; overflow: hidden;" version="1.1" xmlns="http://www.w3.org/2000/svg" xmlns:xlink="http://www.w3.org/1999/xlink">
<defs>
<symbol id="icon-three-dots-svgrepo-com-1" viewBox="0 0 32 32">
<path d="M3.961 12.040c-0.001 0-0.002 0-0.003 0-2.186 0-3.958 1.772-3.958 3.958 0 0 0 0.001 0 0.001v-0c0 0.001 0 0.001 0 0.002 0 2.186 1.772 3.958 3.958 3.958 0.001 0 0.002 0 0.003 0h-0c2.187 0 3.96-1.773 3.96-3.96s-1.773-3.96-3.96-3.96v0zM16.205 12.040c-0 0-0.001 0-0.001 0-2.186 0-3.959 1.772-3.96 3.958v0c0 2.188 1.775 3.96 3.961 3.96s3.963-1.769 3.963-3.96c-0.003-2.187-1.776-3.958-3.963-3.958 0 0 0 0 0 0v0zM28.042 12.040c-0.019-0-0.042-0.001-0.065-0.001-2.187 0-3.96 1.773-3.96 3.96s1.773 3.96 3.96 3.96c0.021 0 0.042-0 0.064-0l-0.003 0c2.161-0.034 3.9-1.794 3.9-3.96 0-2.164-1.736-3.923-3.891-3.96l-0.003-0z"></path>
</symbol>
</defs>
</svg>
